<svg id="Capa_1" data-name="Capa 1" xmlns="http://www.w3.org/2000/svg" viewBox="0 0 595.28 841.89"><defs><style>.cls-1{fill:#fff;}.cls-1,.cls-2{fill-rule:evenodd;}.cls-2{fill:#1d1d1b;}</style></defs><polygon class="cls-1" points="201 324.89 393.76 324.89 393.76 517.65 201 517.65 201 324.89 201 324.89"/><polygon class="cls-2" points="219.13 506.09 219.13 508.63 375.63 508.63 375.63 506.09 219.13 506.09 219.13 506.09 219.13 506.09"/><polygon class="cls-2" points="219.13 514.81 219.13 513.04 375.63 513.04 375.63 514.81 219.13 514.81 219.13 514.81 219.13 514.81"/><polygon class="cls-2" points="219.13 498.81 219.13 501.92 375.63 501.94 375.63 498.81 219.13 498.81 219.13 498.81 219.13 498.81"/><path class="cls-2" d="M297.38,327.72,219.13,374.1V481.77h156.5V374.1l-78.25-46.38ZM349.6,374.1l-13,21.54h0a17.52,17.52,0,0,1,1.85,1.56h0l-8.19,13.58L319,429.36,316.22,434l-3.34,5.54-4.07,6.76h-3.73l1.88-3.14,5.92-9.81,3.34-5.53,2.77-4.6,11.25-18.58,18.37-30.49Zm-6.34,0-11.8,19.53h0a15.65,15.65,0,0,1,2.38.6h0l-3.6,6L319,418.84l-2.77,4.57-3.34,5.53L307,438.76l-3.08,5.11-1.44,2.38h-3.7l2.27-3.79,2.87-4.75,3.08-5.14,5.92-9.79,3.34-5.53,2.77-4.57,11.25-18.63,12-19.95Zm-57.11,50.82,3.19-5.22,5.22-8.64h2.35l4.1-6.84,2.87-4.77,3.08-5.12.52-.86h1.38L307,396.6l-3.08,5.12L301,406.47,295.26,416l-5.92,9.82-.94,1.54h-3.73l1.48-2.46Zm-3.81,2.46h-3.73l2.85-4.73,4.69-7.72,2.33-3.87h2.35l4.43-7.36,5.75-9.55.41-.68h1.36L301,396.42,295.26,406l-5.92,9.81-3.19,5.28-3.81,6.29Zm3.81,7.59,1.47-2.43H290l-.68,1.13-3.19,5.27-4.41,7.31h-2.4l2.12-3.5,4.69-7.78Zm0,11.09,3.19-5.27,5-8.25H298l-2.74,4.6-5.5,9.11h-3.71l.1-.19Zm9.11-4,5.72-9.5h3.71l-.81,1.36L301,438.65l-4.55,7.6h-3.73l2.53-4.21Zm41-67.94h1l-7,11.62-4.67,7.75h2.74L319,408.92l-1.28,2.14H315l-2.09,3.42L307,424.24l-1.88,3.14h-1l2.85-4.73,5.92-9.79,3.34-5.56,2.77-4.56,11.25-18.64,6-10Zm-18.37,19.37h3.73L319,397.8l-2.77,4.6-3.34,5.53L311,411.06h-2.35L307,413.83l-3.08,5.11L301,423.67l-2.25,3.71h-1.33l3.58-6,2.87-4.72,3.08-5.14,5.92-9.81,3.34-5.54,1.65-2.74Zm-5,3.37L307,406.65l-2.64,4.41H303l-2,3.29-5.75,9.5-2.14,3.53h-2.37l4.51-7.44,5.75-9.58,2.87-4.78,3.08-5.11,4.22-7h3.74l-2,3.37Zm0-33.1h1.78l-1.78,2.93L307,376.48l-3.08,5.12L301,386.35l-5.75,9.57-5.92,9.82L286.15,411l-4.69,7.78-5.2,8.59h-3.73l2.53-4.21,6.4-10.54,4.69-7.78,3.19-5.27,5.92-9.84,5.75-9.58,2.87-4.75,3.08-5.12,4-6.55Zm-8,0h3.73L307,366.41l-3.08,5.14L301,376.3l-5.75,9.58-5.92,9.81L286.15,401l-4.69,7.78-6.4,10.6-4.85,8h-3.73l2.53-4.21,6.05-10,6.4-10.57,4.69-7.8,3.19-5.25,5.92-9.84,5.75-9.58,2.87-4.75,1-1.62Zm-6,0h3.73L301,366.25l-5.75,9.55-5.92,9.84-3.19,5.25-4.69,7.77-6.4,10.6L269,419.31l-4.88,8.07h-3.71L269,413.15l6.05-10,6.4-10.59,4.69-7.78,3.19-5.27,5.92-9.82,3.53-5.9Zm-3.53,0h1.23l-1.23,2-5.92,9.84-3.19,5.25-4.69,7.78-6.4,10.59L269,409.26l-11,18.12h-3.7L269,403.08,275.06,393l6.4-10.57,4.69-7.78,3.19-5.27,3.42-5.67Zm-43.51,57.84L269,393l6.05-10,6.4-10.57,4.69-7.78.55-.89h3.68l-1,1.75-3.19,5.27-4.69,7.78-6.4,10.6L269,399.19l-17,28.19h-3.73l3.49-5.8Zm-24.69,40.93,18.09-30h1l-.44.73-17.64,29.24Zm6.06,0,12.58-20.83,5.51-9.14h1l-.45.73-6.05,10.05-11.59,19.19Zm6.08,0,6.5-10.78,6.05-10.05,5.51-9.14h1l-6.5,10.78-6.05,10.05-5.51,9.14Zm6.5,0h-.44l.44-.71,6.05-10.05,11.62-19.21h1.36l-13,21.48-5.11,8.49Zm6.05,0h-.44l.44-.71L269,433.22l.41-.68h1.36L269,435.49l-16.32,27Zm16.84-16.26h-1.36l1.78-3,6.05-10,.42-.68h1.38l-1.8,2.95L269,445.54l-.42.71Zm6.47,0h-1.77l1.77-3,6.4-10.57.07-.16h2l-2.11,3.5-6.14,10.21Zm1.62,28.11h-1l5.77-9.61,4.69-7.83,3.19-5.3.1-.21h1l-1.1,1.86-3.19,5.29-4.69,7.84-4.78,8Zm6.16,0h-1l4.28-7.16,3.19-5.29,5.92-9.87.37-.63h1l-1.36,2.27-5.92,9.87-3.19,5.3-3.31,5.51Zm6.37,0h-1l1.12-1.86,5.92-9.86L301,453l.94-1.6h1L301,454.65l-5.75,9.63-5.92,9.87-.13.21Zm5.69,0h-1l1.35-2.25,5.75-9.55,2.87-4.75,3.08-5.12.78-1.28h1L307,454.28l-3.08,5.12L301,464.18l-5.75,9.55-.36.63Zm18-21.25L307,462.9,303.88,468,301,472.76l-1,1.6h-1l2-3.21,2.87-4.75,3.08-5.12,5.92-9.79,0-.08h1l-1,1.7Zm1.78-7c-.58.07-1.18.1-1.78.13h-2l2-3.37,3.34-5.56,2.77-4.57,11.25-18.61,24.17-40h1l-15.24,25.3h0a13.48,13.48,0,0,1,1.2,2.55h0l-11.09,18.38L319,438.91l-2.77,4.57-1.56,2.64Zm27.3-40.3a13.19,13.19,0,0,1-1.8,6.37h0l-9.92,16.44-7.05,11.67h0a12.32,12.32,0,0,1-4.2,4.17,11.8,11.8,0,0,1-2.61,1.18h0l2.61-4.34,11.25-18.61,29.33-48.6h1L341.9,405h0c0,.21.06.6.06.81Z"/><polygon class="cls-2" points="219.13 491.06 219.13 495.39 375.63 495.39 375.63 491.06 219.13 491.06 219.13 491.06 219.13 491.06"/><polygon class="cls-2" points="219.13 483.07 219.13 488.45 375.63 488.45 375.63 483.07 219.13 483.07 219.13 483.07 219.13 483.07"/></svg>